<svg width="24" height="25" viewBox="0 0 24 25" fill="none" xmlns="http://www.w3.org/2000/svg">
  <path d="M11.4806 3.55357C11.6728 3.08436 12.3272 3.08436 12.5194 3.55357L14.6454 8.7451C14.7264 8.94291 14.9095 9.07807 15.1198 9.09519L20.638 9.54451C21.1368 9.58512 21.339 10.2173 20.959 10.5479L16.7547 14.2058C16.5945 14.3451 16.5245 14.5638 16.5735 14.7722L17.858 20.2414C17.9741 20.7357 17.4446 21.1264 17.0176 20.8615L12.2932 17.9307C12.1132 17.819 11.8868 17.819 11.7068 17.9307L6.98242 20.8615C6.55542 21.1264 6.02597 20.7357 6.14206 20.2414L7.42655 14.7722C7.47549 14.5638 7.40553 14.3451 7.24534 14.2058L3.04102 10.5479C2.66103 10.2173 2.86326 9.58512 3.362 9.54451L8.88025 9.09519C9.09051 9.07807 9.27366 8.94291 9.35467 8.7451L11.4806 3.55357Z" stroke="#0F172A" stroke-width="1.5" stroke-linecap="round" stroke-linejoin="round"/>
</svg>